<svg width="13" height="14" viewBox="0 0 13 14" fill="none" xmlns="http://www.w3.org/2000/svg">
<path d="M6.22917 12.2038C5.39861 12.2038 4.69444 11.9149 4.11667 11.3372C3.53889 10.7594 3.25 10.0552 3.25 9.22465V3.53715C3.25 2.94132 3.46215 2.43125 3.88646 2.00694C4.31076 1.58264 4.82083 1.37048 5.41667 1.37048C6.0125 1.37048 6.52257 1.58264 6.94687 2.00694C7.37118 2.43125 7.58333 2.94132 7.58333 3.53715V8.68298C7.58333 9.06215 7.45243 9.38264 7.19062 9.64444C6.92882 9.90625 6.60833 10.0372 6.22917 10.0372C5.85 10.0372 5.52951 9.90625 5.26771 9.64444C5.0059 9.38264 4.875 9.06215 4.875 8.68298V3.53715H5.6875V8.68298C5.6875 8.83646 5.73941 8.9651 5.84323 9.06892C5.94705 9.17274 6.07569 9.22465 6.22917 9.22465C6.38264 9.22465 6.51128 9.17274 6.6151 9.06892C6.71892 8.9651 6.77083 8.83646 6.77083 8.68298V3.53715C6.77083 3.15798 6.63993 2.8375 6.37812 2.57569C6.11632 2.31389 5.79583 2.18298 5.41667 2.18298C5.0375 2.18298 4.71701 2.31389 4.45521 2.57569C4.1934 2.8375 4.0625 3.15798 4.0625 3.53715V9.22465C4.0625 9.82048 4.27465 10.3306 4.69896 10.7549C5.12326 11.1792 5.63333 11.3913 6.22917 11.3913C6.825 11.3913 7.33507 11.1792 7.75937 10.7549C8.18368 10.3306 8.39583 9.82048 8.39583 9.22465V3.53715H9.20833V9.22465C9.20833 10.0552 8.91944 10.7594 8.34167 11.3372C7.76389 11.9149 7.05972 12.2038 6.22917 12.2038Z" fill="black"/>
</svg>
