<svg width="16" height="12" viewBox="0 0 16 12" fill="none" xmlns="http://www.w3.org/2000/svg">
<path fill-rule="evenodd" clip-rule="evenodd" d="M5.0246 11.6925C5.21209 11.8908 5.46326 12.0012 5.72439 12.0001C5.98552 12.0012 6.23668 11.8908 6.42418 11.6925L15.6974 1.87681C15.8878 1.67433 15.9966 1.39764 16 1.10761C16.0034 0.817583 15.901 0.537971 15.7154 0.330286C15.5298 0.122602 15.2762 0.00385709 15.0103 0.000175479C14.7445 -0.00350613 14.4882 0.108177 14.2978 0.310655L5.72838 9.39019L1.70159 5.12908C1.51149 4.9266 1.25545 4.8148 0.989786 4.81828C0.724127 4.82176 0.470614 4.94022 0.285018 5.14762C0.0994224 5.35502 -0.00305371 5.63435 0.000133453 5.92417C0.00171158 6.06768 0.0291832 6.20944 0.0809798 6.34137C0.132776 6.47329 0.207884 6.59279 0.302013 6.69305L5.0246 11.6925Z" fill="white"/>
</svg>
