<svg width="16" height="12" viewBox="0 0 16 12" fill="none" xmlns="http://www.w3.org/2000/svg">
<path fill-rule="evenodd" clip-rule="evenodd" d="M5.02448 11.6925C5.21198 11.8907 5.46344 12.0013 5.72418 12.0001C5.98541 12.0013 6.23688 11.8907 6.42438 11.6925L15.6973 1.8768C15.8077 1.75961 15.8907 1.61727 15.9415 1.462C15.9786 1.34921 15.9986 1.22958 16.0001 1.10751C16.0035 0.81747 15.9009 0.537929 15.7154 0.330165C15.5298 0.122646 15.2759 0.00374931 15.0103 8.72004e-05C14.7447 -0.00357491 14.4883 0.108241 14.2979 0.310634L5.72858 9.39022L1.70172 5.12899C1.51129 4.9266 1.25543 4.81478 0.989807 4.8182C0.724182 4.82186 0.470765 4.94027 0.285218 5.14755C0.0991825 5.35507 -0.00286831 5.63436 6.13762e-05 5.92416C0.00152622 6.06771 0.0293583 6.20956 0.0811161 6.3414C0.132874 6.47323 0.208069 6.59286 0.301819 6.69296L5.02448 11.6925Z" fill="white"/>
</svg>
