<svg width="24" height="24" viewBox="0 0 24 24" fill="none" xmlns="http://www.w3.org/2000/svg">
<path d="M10.9998 17.0006C10.7346 17.0005 10.4803 16.8951 10.2928 16.7076L6.29279 12.7076C6.10532 12.52 6 12.2657 6 12.0006C6 11.7354 6.10532 11.4811 6.29279 11.2936L10.2928 7.29357C10.385 7.19806 10.4954 7.12188 10.6174 7.06947C10.7394 7.01706 10.8706 6.98947 11.0034 6.98832C11.1362 6.98717 11.2678 7.01247 11.3907 7.06275C11.5136 7.11303 11.6253 7.18728 11.7192 7.28117C11.8131 7.37507 11.8873 7.48672 11.9376 7.60962C11.9879 7.73251 12.0132 7.86419 12.012 7.99697C12.0109 8.12975 11.9833 8.26097 11.9309 8.38297C11.8785 8.50498 11.8023 8.61532 11.7068 8.70757L8.41379 12.0006L11.7068 15.2936C11.8466 15.4334 11.9418 15.6116 11.9804 15.8055C12.0189 15.9995 11.9991 16.2005 11.9235 16.3832C11.8478 16.5659 11.7197 16.7221 11.5552 16.832C11.3908 16.9419 11.1975 17.0005 10.9998 17.0006Z" fill="#1F2A37"/>
<path d="M16.9998 17.0006C16.7346 17.0005 16.4803 16.8951 16.2928 16.7076L12.2928 12.7076C12.1053 12.52 12 12.2657 12 12.0006C12 11.7354 12.1053 11.4811 12.2928 11.2936L16.2928 7.29357C16.385 7.19806 16.4954 7.12188 16.6174 7.06947C16.7394 7.01706 16.8706 6.98947 17.0034 6.98832C17.1362 6.98717 17.2678 7.01247 17.3907 7.06275C17.5136 7.11303 17.6253 7.18728 17.7192 7.28117C17.8131 7.37507 17.8873 7.48672 17.9376 7.60962C17.9879 7.73251 18.0132 7.86419 18.012 7.99697C18.0109 8.12975 17.9833 8.26097 17.9309 8.38297C17.8785 8.50498 17.8023 8.61532 17.7068 8.70757L14.4138 12.0006L17.7068 15.2936C17.8466 15.4334 17.9418 15.6116 17.9804 15.8055C18.0189 15.9995 17.9991 16.2005 17.9235 16.3832C17.8478 16.5659 17.7197 16.7221 17.5552 16.832C17.3908 16.9419 17.1975 17.0005 16.9998 17.0006Z" fill="#1F2A37"/>
</svg>
