<svg width="24" height="24" viewBox="0 0 24 24" fill="none" xmlns="http://www.w3.org/2000/svg">
<path d="M13.0001 17.0006C12.8023 17.0005 12.609 16.9419 12.4446 16.832C12.2802 16.7221 12.1521 16.5659 12.0764 16.3832C12.0007 16.2005 11.9809 15.9995 12.0195 15.8055C12.0581 15.6116 12.1533 15.4334 12.2931 15.2936L15.5861 12.0006L12.2931 8.70757C12.1976 8.61532 12.1214 8.50498 12.069 8.38297C12.0166 8.26097 11.989 8.12975 11.9878 7.99697C11.9867 7.86419 12.012 7.73251 12.0623 7.60962C12.1125 7.48672 12.1868 7.37507 12.2807 7.28117C12.3746 7.18728 12.4862 7.11303 12.6091 7.06275C12.732 7.01247 12.8637 6.98717 12.9965 6.98832C13.1293 6.98947 13.2605 7.01706 13.3825 7.06947C13.5045 7.12188 13.6148 7.19806 13.7071 7.29357L17.7071 11.2936C17.8946 11.4811 17.9999 11.7354 17.9999 12.0006C17.9999 12.2657 17.8946 12.52 17.7071 12.7076L13.7071 16.7076C13.5196 16.8951 13.2653 17.0005 13.0001 17.0006Z" fill="#1F2A37"/>
<path d="M7.00008 17.0006C6.80233 17.0005 6.60903 16.9419 6.44462 16.832C6.28021 16.7221 6.15207 16.5659 6.0764 16.3832C6.00073 16.2005 5.98093 15.9995 6.0195 15.8055C6.05807 15.6116 6.15327 15.4334 6.29308 15.2936L9.58608 12.0006L6.29308 8.70757C6.19757 8.61532 6.12139 8.50498 6.06898 8.38297C6.01657 8.26097 5.98898 8.12975 5.98783 7.99697C5.98668 7.86419 6.01198 7.73251 6.06226 7.60962C6.11254 7.48672 6.18679 7.37507 6.28069 7.28117C6.37458 7.18728 6.48623 7.11303 6.60913 7.06275C6.73202 7.01247 6.8637 6.98717 6.99648 6.98832C7.12926 6.98947 7.26048 7.01706 7.38249 7.06947C7.50449 7.12188 7.61483 7.19806 7.70708 7.29357L11.7071 11.2936C11.8946 11.4811 11.9999 11.7354 11.9999 12.0006C11.9999 12.2657 11.8946 12.52 11.7071 12.7076L7.70708 16.7076C7.51959 16.8951 7.26528 17.0005 7.00008 17.0006Z" fill="#1F2A37"/>
</svg>
