<svg width="8" height="14" viewBox="0 0 8 14" fill="none" xmlns="http://www.w3.org/2000/svg">
<path fill-rule="evenodd" clip-rule="evenodd" d="M0.607958 13.7643C0.82673 13.9179 1.08394 14 1.34708 14C1.69996 14 2.03837 13.8526 2.28785 13.5903L7.61048 7.99722C7.85994 7.735 8.00007 7.37941 8.00007 7.00864C8.00007 6.63786 7.85994 6.28227 7.61048 6.02005L2.28785 0.426923C2.16511 0.293373 2.01827 0.186849 1.85593 0.113566C1.69358 0.0402834 1.51898 0.00171002 1.34229 9.6664e-05C1.16561 -0.0015167 0.990388 0.0338619 0.826856 0.104169C0.663323 0.174476 0.514753 0.278302 0.389814 0.409591C0.264876 0.540879 0.16607 0.697 0.0991637 0.868844C0.0322572 1.04069 -0.00141166 1.22481 0.000123673 1.41048C0.001659 1.59614 0.0383668 1.77962 0.108105 1.95022C0.177843 2.12081 0.279217 2.27511 0.406308 2.40409L4.78816 7.00864L0.406308 11.6132C0.22027 11.8087 0.0935826 12.0579 0.0422625 12.3291C-0.00905765 12.6003 0.0172924 12.8814 0.117983 13.1368C0.218674 13.3923 0.389185 13.6106 0.607958 13.7643Z" fill="white"/>
</svg>
