<svg width="8" height="14" viewBox="0 0 8 14" fill="none" xmlns="http://www.w3.org/2000/svg">
<path fill-rule="evenodd" clip-rule="evenodd" d="M5.71222 13.5903C5.96171 13.8526 6.30011 14 6.65299 14C6.91613 14 7.17334 13.9179 7.39212 13.7643C7.61089 13.6106 7.7814 13.3923 7.88209 13.1368C7.98278 12.8814 8.00913 12.6003 7.95781 12.3291C7.90649 12.0579 7.7798 11.8087 7.59377 11.6132L3.21192 7.00864L7.59377 2.40409C7.72086 2.27511 7.82223 2.12081 7.89197 1.95022C7.96171 1.77962 7.99841 1.59614 7.99995 1.41048C8.00149 1.22481 7.96782 1.04069 7.90091 0.868844C7.834 0.697 7.7352 0.540879 7.61026 0.409591C7.48532 0.278302 7.33675 0.174476 7.17322 0.104169C7.00969 0.0338619 6.83447 -0.0015167 6.65778 9.6664e-05C6.4811 0.00171002 6.30649 0.0402834 6.14414 0.113566C5.9818 0.186849 5.83497 0.293373 5.71222 0.426923L0.389598 6.02005C0.140139 6.28227 0 6.63786 0 7.00864C0 7.37941 0.140139 7.735 0.389598 7.99722L5.71222 13.5903Z" fill="white"/>
</svg>
