<svg width="24" height="24" viewBox="0 0 24 24" fill="none" xmlns="http://www.w3.org/2000/svg">
<path fill-rule="evenodd" clip-rule="evenodd" d="M18.2623 3C18.9874 3 19.6828 3.30343 20.1957 3.84357C20.4504 4.111 20.6525 4.42873 20.7906 4.77857C20.9286 5.12842 20.9997 5.5035 21 5.88236C21.0003 6.26122 20.9296 6.63641 20.792 6.98646C20.6545 7.33651 20.4528 7.65454 20.1984 7.92235L13.1083 15.3923C12.9811 15.5265 12.819 15.6181 12.6425 15.6554L9.42012 16.3344C9.36 16.3463 9.29898 16.3525 9.23781 16.3527C9.10262 16.3527 8.96912 16.321 8.84697 16.26C8.72483 16.199 8.6171 16.1101 8.53159 15.9998C8.44608 15.8894 8.38493 15.7605 8.35256 15.6222C8.3202 15.4839 8.31744 15.3397 8.34448 15.2002L8.98895 11.8043C9.02412 11.6184 9.11071 11.4476 9.23781 11.3135L16.3288 3.84357C16.8417 3.30343 17.5371 3 18.2623 3ZM19.1046 5.51327C19.0587 5.39668 18.9915 5.29076 18.9067 5.20156C18.7358 5.02152 18.504 4.92037 18.2623 4.92037C18.0205 4.92037 17.7887 5.02152 17.6178 5.20156L17.1292 5.71633L18.4181 7.07433L18.9067 6.56052C18.9915 6.47132 19.0587 6.3654 19.1046 6.24881C19.1505 6.13222 19.1741 6.00725 19.1741 5.88104C19.1741 5.75483 19.1505 5.62986 19.1046 5.51327ZM10.4 14.1649L12.0117 13.8249L17.1292 8.43232L15.8402 7.07433L10.7227 12.466L10.4 14.1649ZM15.7173 19.0322C15.7458 19.0022 15.7618 18.9614 15.7618 18.9188V13.9478L17.585 12.0271V18.9188C17.5845 19.4706 17.3762 19.9997 17.0059 20.3899C16.6355 20.7801 16.1334 20.9995 15.6096 21H4.97535C4.4516 20.9995 3.94945 20.7801 3.5791 20.3899C3.20875 19.9997 3.00048 19.4706 3 18.9188V7.71491C3.00048 7.1631 3.20875 6.63404 3.5791 6.24386C3.94945 5.85368 4.4516 5.63425 4.97535 5.63374H13.3398L11.5167 7.55452H4.97535C4.93498 7.55452 4.89626 7.57142 4.86771 7.6015C4.83916 7.63157 4.82312 7.67237 4.82312 7.71491V18.9188C4.82312 18.9614 4.83916 19.0022 4.86771 19.0322C4.89626 19.0623 4.93498 19.0792 4.97535 19.0792H15.6096C15.65 19.0792 15.6887 19.0623 15.7173 19.0322Z" fill="white"/>
</svg>
