<svg width="28" height="29" viewBox="0 0 28 29" fill="none" xmlns="http://www.w3.org/2000/svg">
<path d="M18.3888 22.8603C18.3888 22.9117 18.3701 22.9609 18.3368 22.9973C18.3035 23.0336 18.2583 23.0541 18.2112 23.0541H5.80458C5.75747 23.0541 5.7123 23.0336 5.67899 22.9973C5.64569 22.9609 5.62697 22.9117 5.62697 22.8603V9.32218C5.62697 9.27078 5.64569 9.22149 5.67899 9.18514C5.7123 9.1488 5.75747 9.12838 5.80458 9.12838H13.4362L15.5631 6.80743H5.80458C5.19354 6.80805 4.60769 7.07319 4.17562 7.54466C3.74355 8.01614 3.50056 8.65541 3.5 9.32218V22.8603C3.50056 23.527 3.74355 24.1663 4.17562 24.6378C4.60769 25.1092 5.19354 25.3744 5.80458 25.375H18.2112C18.8223 25.3744 19.4081 25.1092 19.8402 24.6378C20.2722 24.1663 20.5152 23.527 20.5158 22.8603V14.5327L18.3888 16.8536V22.8603Z" fill="#1F2A37"/>
<path d="M23.5616 4.64431C22.9633 3.99165 22.152 3.625 21.306 3.625C20.46 3.625 19.6486 3.99165 19.0503 4.64431L10.7774 13.6705C10.6292 13.8325 10.5281 14.0389 10.4871 14.2635L9.73522 18.3669C9.70368 18.5355 9.7069 18.7097 9.74466 18.8768C9.78241 19.0439 9.85376 19.1997 9.95352 19.333C10.0533 19.4663 10.179 19.5738 10.3215 19.6475C10.464 19.7213 10.6197 19.7595 10.7774 19.7595C10.8488 19.7592 10.92 19.7518 10.9901 19.7374L14.7496 18.917C14.9555 18.8719 15.1446 18.7612 15.293 18.599L23.5648 9.57284C23.8616 9.24924 24.0969 8.86495 24.2574 8.44198C24.4178 8.019 24.5003 7.56564 24.5 7.10785C24.4997 6.65007 24.4167 6.19684 24.2556 5.77411C24.0946 5.35138 23.8588 4.96746 23.5616 4.64431ZM22.0578 6.28522C22.1567 6.393 22.2352 6.52098 22.2887 6.66186C22.3422 6.80274 22.3698 6.95375 22.3698 7.10626C22.3698 7.25876 22.3422 7.40977 22.2887 7.55065C22.2352 7.69153 22.1567 7.81951 22.0578 7.92729L21.4878 8.54814L19.984 6.90723L20.5541 6.28522C20.7535 6.06767 21.024 5.94545 21.306 5.94545C21.588 5.94545 21.8584 6.06767 22.0578 6.28522ZM14.0136 16.7051L12.1334 17.1159L12.5099 15.063L18.4803 8.54814L19.984 10.1891L14.0136 16.7051Z" fill="#1F2A37"/>
</svg>
