<svg width="13" height="9" viewBox="0 0 13 9" fill="none" xmlns="http://www.w3.org/2000/svg">
<path d="M6.25 6.41667C5.75555 6.41667 5.2722 6.27982 4.86107 6.02343C4.44995 5.76704 4.12952 5.40262 3.9403 4.97626C3.75108 4.5499 3.70157 4.08074 3.79804 3.62812C3.8945 3.1755 4.1326 2.75974 4.48223 2.43342C4.83186 2.10709 5.27732 1.88487 5.76227 1.79483C6.24723 1.7048 6.74989 1.75101 7.20671 1.92761C7.66352 2.10422 8.05397 2.40329 8.32867 2.787C8.60338 3.17072 8.75 3.62184 8.75 4.08333C8.75 4.70217 8.48661 5.29566 8.01777 5.73325C7.54893 6.17083 6.91304 6.41667 6.25 6.41667ZM6.25 2.91667C6.00277 2.91667 5.7611 2.98509 5.55554 3.11329C5.34998 3.24148 5.18976 3.42369 5.09515 3.63687C5.00054 3.85005 4.97579 4.08463 5.02402 4.31094C5.07225 4.53725 5.1913 4.74513 5.36612 4.90829C5.54093 5.07145 5.76366 5.18257 6.00614 5.22758C6.24861 5.2726 6.49995 5.24949 6.72835 5.16119C6.95676 5.07289 7.15199 4.92336 7.28934 4.7315C7.42669 4.53964 7.5 4.31408 7.5 4.08333C7.5 3.77391 7.3683 3.47717 7.13388 3.25838C6.89946 3.03958 6.58152 2.91667 6.25 2.91667Z" fill="white"/>
<path d="M6.25 8.16667C2.21625 8.16667 0 5.0995 0 4.08333C0 3.11267 2.8825 0 6.25 0C9.6175 0 12.5 3.11267 12.5 4.08333C12.5 5.0995 10.2838 8.16667 6.25 8.16667ZM1.25813 4.09967C1.7028 4.98027 2.41035 5.72237 3.29584 6.23684C4.18133 6.75132 5.2071 7.01631 6.25 7C7.2929 7.01631 8.31867 6.75132 9.20416 6.23684C10.0896 5.72237 10.7972 4.98027 11.2419 4.09967C11.015 3.53383 8.90938 1.16667 6.25 1.16667C3.59062 1.16667 1.485 3.53383 1.25813 4.09967Z" fill="white"/>
</svg>
