<svg width="24" height="24" viewBox="0 0 24 24" fill="none" xmlns="http://www.w3.org/2000/svg">
<path d="M18.0662 2.00001H9.82823C9.43412 1.99889 9.04371 2.07601 8.67962 2.22689C8.31553 2.37778 7.98502 2.59944 7.70723 2.87901L4.87923 5.70701C4.59954 5.98491 4.37781 6.31559 4.22692 6.67986C4.07603 7.04413 3.99898 7.43473 4.00023 7.82901V20C3.99221 20.5215 4.19129 21.0249 4.55383 21.3998C4.91637 21.7747 5.41279 21.9905 5.93423 22H18.0662C18.5877 21.9905 19.0841 21.7747 19.4466 21.3998C19.8092 21.0249 20.0083 20.5215 20.0002 20V4.00001C20.0083 3.47854 19.8092 2.97516 19.4466 2.60025C19.0841 2.22534 18.5877 2.00948 18.0662 2.00001ZM9.00023 4.41401V7.00001H6.41423L9.00023 4.41401ZM6.00023 20V9.00001H9.00023C9.53067 9.00001 10.0394 8.7893 10.4144 8.41423C10.7895 8.03915 11.0002 7.53045 11.0002 7.00001V4.00001L17.9942 3.97801C17.9983 3.98461 18.0004 3.99225 18.0002 4.00001L18.0662 20H6.00023Z" fill="#1F2A37"/>
</svg>
