<svg width="24" height="24" viewBox="0 0 24 24" fill="none" xmlns="http://www.w3.org/2000/svg">
<path d="M3.22314 4.74546L9.75642 13.3636V17.7273L14.2436 21V13.3636L20.7769 4.74546C20.9014 4.58309 20.9772 4.38996 20.9956 4.1878C21.014 3.98563 20.9744 3.78245 20.8812 3.60109C20.788 3.41973 20.6449 3.2674 20.468 3.16121C20.2911 3.05502 20.0874 2.9992 19.8799 3.00001H4.12013C3.91256 2.9992 3.70887 3.05502 3.53197 3.16121C3.35508 3.2674 3.21198 3.41973 3.11878 3.60109C3.02558 3.78245 2.98597 3.98563 3.00441 4.1878C3.02285 4.38996 3.09859 4.58309 3.22314 4.74546Z" fill="#2563EB"/>
</svg>
