<svg width="24" height="24" viewBox="0 0 24 24" fill="none" xmlns="http://www.w3.org/2000/svg">
<path fill-rule="evenodd" clip-rule="evenodd" d="M7.00002 19.4832C8.48 20.4722 10.2202 21 12 21C14.3862 20.9973 16.6738 20.0484 18.3609 18.3611C20.0484 16.6738 20.9976 14.3862 21 12C21 10.22 20.4722 8.48 19.4834 6.99977C18.4942 5.51979 17.0889 4.36623 15.4444 3.68508C13.7998 3.00392 11.9903 2.8257 10.2442 3.17287C8.49855 3.52028 6.89455 4.37746 5.63625 5.636C4.37746 6.89479 3.52004 8.49831 3.17287 10.2442C2.8257 11.99 3.00392 13.7996 3.68508 15.4441C4.36623 17.0886 5.52004 18.4944 7.00002 19.4832ZM8.00002 6.01345C9.1841 5.22219 10.5762 4.80007 12 4.80007C13.9087 4.80226 15.7388 5.56154 17.0889 6.91115C18.4385 8.261 19.1978 10.0911 19.2002 12C19.2002 13.4241 18.7779 14.8162 17.9868 16C17.1953 17.1841 16.0708 18.107 14.7554 18.6519C13.4395 19.1968 11.9922 19.3394 10.5952 19.0618C9.19875 18.784 7.91603 18.0982 6.90871 17.0911C5.90187 16.0842 5.21633 14.8013 4.9385 13.4046C4.66066 12.0081 4.80324 10.5603 5.34816 9.24465C5.89309 7.92897 6.81594 6.80471 8.00002 6.01345ZM12.8999 11.1001V14.7H13.7998C14.0386 14.7 14.2676 14.7949 14.4365 14.9636C14.605 15.1323 14.7002 15.3613 14.7002 15.6001C14.7002 15.6355 14.6983 15.6707 14.6939 15.7056C14.6885 15.7525 14.6792 15.7986 14.6665 15.8438C14.6524 15.8938 14.6338 15.9424 14.6113 15.9893C14.5679 16.0801 14.5093 16.1638 14.4365 16.2363C14.2676 16.4053 14.0386 16.5 13.7998 16.5H12H10.2002C9.96144 16.5 9.73244 16.4053 9.5635 16.2363C9.39504 16.0676 9.29982 15.8386 9.29982 15.6001C9.29982 15.3613 9.39504 15.1323 9.5635 14.9636C9.6548 14.8726 9.7632 14.803 9.88137 14.7583C9.92336 14.7425 9.96682 14.7298 10.0108 14.7202C10.0728 14.7068 10.1362 14.7 10.2002 14.7H11.1001V12H10.2002C9.96144 12 9.73244 11.9053 9.5635 11.7363C9.51467 11.6875 9.47219 11.6338 9.43654 11.5762C9.34816 11.4343 9.29982 11.2695 9.29982 11.1001C9.29982 10.8613 9.39504 10.6323 9.5635 10.4636C9.73244 10.2949 9.96144 10.2 10.2002 10.2H12C12.2388 10.2 12.4678 10.2949 12.6362 10.4636C12.8052 10.6323 12.8999 10.8613 12.8999 11.1001ZM12.8999 7.94997C12.8999 8.69558 12.2954 9.30007 11.5498 9.30007C10.8042 9.30007 10.2002 8.69558 10.2002 7.94997C10.2002 7.20436 10.8042 6.60012 11.5498 6.60012C12.2954 6.60012 12.8999 7.20436 12.8999 7.94997Z" fill="white"/>
</svg>
