<svg width="24" height="24" viewBox="0 0 24 24" fill="none" xmlns="http://www.w3.org/2000/svg">
<path d="M12 21C10.22 21 8.47991 20.4722 6.99987 19.4832C5.51983 18.4943 4.36628 17.0887 3.68509 15.4442C3.0039 13.7996 2.82567 11.99 3.17294 10.2442C3.5202 8.49836 4.37737 6.89471 5.63604 5.63604C6.89471 4.37737 8.49836 3.5202 10.2442 3.17294C11.99 2.82567 13.7996 3.0039 15.4442 3.68509C17.0887 4.36628 18.4943 5.51983 19.4832 6.99987C20.4722 8.47991 21 10.22 21 12C20.9974 14.3861 20.0483 16.6738 18.3611 18.3611C16.6738 20.0483 14.3861 20.9974 12 21ZM12 4.8C10.576 4.8 9.18393 5.22228 7.9999 6.01342C6.81586 6.80457 5.89302 7.92905 5.34807 9.24468C4.80312 10.5603 4.66054 12.008 4.93835 13.4047C5.21616 14.8013 5.9019 16.0842 6.90883 17.0912C7.91577 18.0981 9.19869 18.7838 10.5954 19.0617C11.992 19.3395 13.4397 19.1969 14.7553 18.6519C16.071 18.107 17.1954 17.1841 17.9866 16.0001C18.7777 14.8161 19.2 13.424 19.2 12C19.1979 10.0911 18.4386 8.261 17.0888 6.9112C15.739 5.5614 13.9089 4.80215 12 4.8Z" fill="#1F2A37"/>
<path d="M12 16.5C11.7613 16.5 11.5324 16.4052 11.3636 16.2364C11.1948 16.0676 11.1 15.8387 11.1 15.6V12H10.2C9.96131 12 9.73239 11.9052 9.56361 11.7364C9.39482 11.5676 9.3 11.3387 9.3 11.1C9.3 10.8613 9.39482 10.6324 9.56361 10.4636C9.73239 10.2948 9.96131 10.2 10.2 10.2H12C12.2387 10.2 12.4676 10.2948 12.6364 10.4636C12.8052 10.6324 12.9 10.8613 12.9 11.1V15.6C12.9 15.8387 12.8052 16.0676 12.6364 16.2364C12.4676 16.4052 12.2387 16.5 12 16.5Z" fill="#1F2A37"/>
<path d="M13.8 16.5H10.2C9.96131 16.5 9.73239 16.4052 9.56361 16.2364C9.39482 16.0676 9.3 15.8387 9.3 15.6C9.3 15.3613 9.39482 15.1324 9.56361 14.9636C9.73239 14.7948 9.96131 14.7 10.2 14.7H13.8C14.0387 14.7 14.2676 14.7948 14.4364 14.9636C14.6052 15.1324 14.7 15.3613 14.7 15.6C14.7 15.8387 14.6052 16.0676 14.4364 16.2364C14.2676 16.4052 14.0387 16.5 13.8 16.5Z" fill="#1F2A37"/>
<path d="M11.55 9.3C12.2956 9.3 12.9 8.69559 12.9 7.95C12.9 7.20442 12.2956 6.6 11.55 6.6C10.8044 6.6 10.2 7.20442 10.2 7.95C10.2 8.69559 10.8044 9.3 11.55 9.3Z" fill="#1F2A37"/>
</svg>
