<svg width="22" height="23" viewBox="0 0 22 23" fill="none" xmlns="http://www.w3.org/2000/svg">
<path fill-rule="evenodd" clip-rule="evenodd" d="M18.306 0.625C19.152 0.625 19.9633 0.991647 20.5616 1.64431C20.8588 1.96746 21.0946 2.35138 21.2556 2.77411C21.4167 3.19684 21.4997 3.65007 21.5 4.10785C21.5003 4.56564 21.4178 5.019 21.2574 5.44198C21.0969 5.86495 20.8616 6.24924 20.5648 6.57284L12.293 15.599C12.1446 15.7612 11.9555 15.8719 11.7496 15.917L7.99014 16.7374C7.92 16.7518 7.84881 16.7592 7.77744 16.7595C7.61972 16.7595 7.46397 16.7213 7.32147 16.6475C7.17897 16.5738 7.05328 16.4663 6.95352 16.333C6.85376 16.1997 6.78241 16.0439 6.74466 15.8768C6.7069 15.7097 6.70368 15.5355 6.73522 15.3669L7.48711 11.2635C7.52814 11.0389 7.62916 10.8325 7.77744 10.6705L16.0503 1.64431C16.6486 0.991647 17.46 0.625 18.306 0.625ZM19.2887 3.66186C19.2352 3.52098 19.1567 3.393 19.0578 3.28522C18.8584 3.06767 18.588 2.94545 18.306 2.94545C18.024 2.94545 17.7535 3.06767 17.5541 3.28522L16.984 3.90723L18.4878 5.54814L19.0578 4.92729C19.1567 4.81951 19.2352 4.69153 19.2887 4.55065C19.3422 4.40977 19.3698 4.25876 19.3698 4.10626C19.3698 3.95375 19.3422 3.80274 19.2887 3.66186ZM9.13339 14.1159L11.0136 13.7051L16.984 7.18905L15.4803 5.54814L9.50986 12.063L9.13339 14.1159ZM15.3368 19.9973C15.3701 19.9609 15.3888 19.9117 15.3888 19.8603V13.8536L17.5158 11.5327V19.8603C17.5152 20.527 17.2722 21.1663 16.8402 21.6378C16.4081 22.1092 15.8223 22.3744 15.2112 22.375H2.80458C2.19354 22.3744 1.60769 22.1092 1.17562 21.6378C0.743547 21.1663 0.500563 20.527 0.5 19.8603V6.32218C0.500563 5.65541 0.743547 5.01614 1.17562 4.54466C1.60769 4.07319 2.19354 3.80805 2.80458 3.80743H12.5631L10.4362 6.12838H2.80458C2.75747 6.12838 2.7123 6.1488 2.67899 6.18514C2.64569 6.22149 2.62697 6.27078 2.62697 6.32218V19.8603C2.62697 19.9117 2.64569 19.9609 2.67899 19.9973C2.7123 20.0336 2.75747 20.0541 2.80458 20.0541H15.2112C15.2583 20.0541 15.3035 20.0336 15.3368 19.9973Z" fill="white"/>
</svg>
