<svg width="28" height="32" viewBox="0 0 28 32" fill="none" xmlns="http://www.w3.org/2000/svg">
<path d="M18.5892 21.6617C18.327 21.4206 17.9715 21.2853 17.6007 21.2853C17.23 21.2853 16.8744 21.4206 16.6122 21.6617L13.4062 24.6096V12.2856C13.4062 11.9447 13.2589 11.6177 12.9967 11.3766C12.7345 11.1354 12.3789 11 12.008 11C11.6372 11 11.2816 11.1354 11.0194 11.3766C10.7572 11.6177 10.6099 11.9447 10.6099 12.2856V24.6096L7.40386 21.6617C7.27488 21.5389 7.1206 21.4409 6.95002 21.3736C6.77944 21.3062 6.59597 21.2707 6.41032 21.2692C6.22467 21.2677 6.04056 21.3003 5.86873 21.3649C5.6969 21.4296 5.54079 21.525 5.40951 21.6457C5.27824 21.7664 5.17442 21.91 5.10412 22.068C5.03382 22.226 4.99844 22.3953 5.00005 22.566C5.00167 22.7367 5.04024 22.9054 5.11351 23.0622C5.18679 23.2191 5.29331 23.3609 5.42685 23.4795L11.0195 28.622C11.1497 28.742 11.3047 28.8368 11.4753 28.901C11.6444 28.9663 11.826 29 12.0094 29C12.1929 29 12.3744 28.9663 12.5435 28.901C12.7142 28.8368 12.8691 28.742 12.9993 28.622L18.592 23.4795C18.8538 23.2381 19.0005 22.911 19 22.5701C18.9995 22.2292 18.8517 21.9024 18.5892 21.6617Z" fill="#1F2A37"/>
<path d="M27.6071 5.51943L22.0082 0.37651C21.8778 0.256527 21.7227 0.16167 21.5519 0.0975067C21.2095 -0.0325022 20.8249 -0.0325022 20.4825 0.0975067C20.3117 0.16167 20.1566 0.256527 20.0262 0.37651L14.4273 5.51943C14.2936 5.63803 14.187 5.7799 14.1136 5.93677C14.0403 6.09363 14.0017 6.26235 14.0001 6.43306C13.9984 6.60378 14.0339 6.77309 14.1042 6.9311C14.1746 7.08911 14.2785 7.23266 14.41 7.35338C14.5414 7.4741 14.6977 7.56957 14.8697 7.63422C15.0417 7.69887 15.226 7.7314 15.4119 7.72992C15.5977 7.72843 15.7814 7.69297 15.9522 7.62558C16.123 7.5582 16.2774 7.46025 16.4065 7.33745L19.6189 4.38927V16.7143C19.6189 17.0553 19.7663 17.3823 20.0288 17.6234C20.2913 17.8645 20.6474 18 21.0186 18C21.3898 18 21.7459 17.8645 22.0084 17.6234C22.2708 17.3823 22.4183 17.0553 22.4183 16.7143V4.38927L25.6279 7.33745C25.8919 7.57165 26.2454 7.70125 26.6124 7.69832C26.9794 7.69539 27.3305 7.56017 27.59 7.32178C27.8495 7.0834 27.9968 6.76092 27.9999 6.42381C28.0031 6.0867 27.8621 5.76192 27.6071 5.51943Z" fill="#1F2A37"/>
</svg>
